<svg width="20" height="20" viewBox="0 0 20 20" fill="none" xmlns="http://www.w3.org/2000/svg">
<path d="M12.5001 18.9583H7.50008C2.97508 18.9583 1.04175 17.025 1.04175 12.5V7.49996C1.04175 2.97496 2.97508 1.04163 7.50008 1.04163H9.16675C9.50842 1.04163 9.79175 1.32496 9.79175 1.66663C9.79175 2.00829 9.50842 2.29163 9.16675 2.29163H7.50008C3.65841 2.29163 2.29175 3.65829 2.29175 7.49996V12.5C2.29175 16.3416 3.65841 17.7083 7.50008 17.7083H12.5001C16.3417 17.7083 17.7084 16.3416 17.7084 12.5V10.8333C17.7084 10.4916 17.9917 10.2083 18.3334 10.2083C18.6751 10.2083 18.9584 10.4916 18.9584 10.8333V12.5C18.9584 17.025 17.0251 18.9583 12.5001 18.9583Z" fill="#292D32"/>
<path d="M7.08336 14.7417C6.57503 14.7417 6.10836 14.5584 5.76669 14.225C5.35836 13.8167 5.18336 13.225 5.27503 12.6L5.63336 10.0917C5.70003 9.60838 6.01669 8.98338 6.35836 8.64172L12.925 2.07505C14.5834 0.416716 16.2667 0.416716 17.925 2.07505C18.8334 2.98338 19.2417 3.90838 19.1584 4.83338C19.0834 5.58338 18.6834 6.31672 17.925 7.06672L11.3584 13.6334C11.0167 13.975 10.3917 14.2917 9.90836 14.3584L7.40003 14.7167C7.29169 14.7417 7.18336 14.7417 7.08336 14.7417ZM13.8084 2.95838L7.24169 9.52505C7.08336 9.68338 6.90003 10.05 6.86669 10.2667L6.50836 12.775C6.47503 13.0167 6.52503 13.2167 6.65003 13.3417C6.77503 13.4667 6.97503 13.5167 7.21669 13.4834L9.72503 13.125C9.94169 13.0917 10.3167 12.9084 10.4667 12.75L17.0334 6.18338C17.575 5.64172 17.8584 5.15838 17.9 4.70838C17.95 4.16672 17.6667 3.59172 17.0334 2.95005C15.7 1.61672 14.7834 1.99172 13.8084 2.95838Z" fill="#292D32"/>
<path d="M16.5416 8.19161C16.4832 8.19161 16.4249 8.18327 16.3749 8.16661C14.1832 7.54994 12.4416 5.80827 11.8249 3.61661C11.7332 3.28327 11.9249 2.94161 12.2582 2.84161C12.5916 2.74994 12.9332 2.94161 13.0249 3.27494C13.5249 5.04994 14.9332 6.45827 16.7082 6.95827C17.0416 7.04994 17.2332 7.39994 17.1416 7.73327C17.0666 8.01661 16.8166 8.19161 16.5416 8.19161Z" fill="#292D32"/>
</svg>
