<svg width="28" height="29" viewBox="0 0 28 29" fill="none" xmlns="http://www.w3.org/2000/svg">
<path d="M14.0235 24.4517C11.3052 24.4517 8.58684 24.0201 6.00851 23.1567C5.02851 22.8184 4.28184 22.1301 3.95517 21.2317C3.61684 20.3334 3.73351 19.3417 4.27017 18.4551L5.61184 16.2267C5.89184 15.7601 6.14851 14.8267 6.14851 14.2784V10.9067C6.14851 6.56674 9.68351 3.03174 14.0235 3.03174C18.3635 3.03174 21.8985 6.56674 21.8985 10.9067V14.2784C21.8985 14.8151 22.1552 15.7601 22.4352 16.2384L23.7652 18.4551C24.2668 19.2951 24.3602 20.3101 24.0218 21.2317C23.6835 22.1534 22.9485 22.8534 22.0268 23.1567C19.4602 24.0201 16.7418 24.4517 14.0235 24.4517ZM14.0235 4.78174C10.6518 4.78174 7.89851 7.52341 7.89851 10.9067V14.2784C7.89851 15.1301 7.54851 16.3901 7.11684 17.1251L5.77517 19.3534C5.51851 19.7851 5.44851 20.2401 5.60017 20.6251C5.74017 21.0217 6.09017 21.3251 6.56851 21.4884C11.4452 23.1217 16.6135 23.1217 21.4902 21.4884C21.9102 21.3484 22.2368 21.0334 22.3885 20.6134C22.5402 20.1934 22.5052 19.7384 22.2718 19.3534L20.9302 17.1251C20.4868 16.3667 20.1485 15.1184 20.1485 14.2667V10.9067C20.1485 7.52341 17.4068 4.78174 14.0235 4.78174Z" fill="#292D32"/>
<path d="M16.1934 5.09671C16.1117 5.09671 16.0301 5.08504 15.9484 5.06171C15.6101 4.96838 15.2834 4.89838 14.9684 4.85171C13.9767 4.72338 13.0201 4.79338 12.1217 5.06171C11.7951 5.16671 11.4451 5.06171 11.2234 4.81671C11.0017 4.57171 10.9317 4.22171 11.0601 3.90671C11.5384 2.68171 12.7051 1.87671 14.0351 1.87671C15.3651 1.87671 16.5317 2.67004 17.0101 3.90671C17.1267 4.22171 17.0684 4.57171 16.8467 4.81671C16.6717 5.00338 16.4267 5.09671 16.1934 5.09671Z" fill="#292D32"/>
<path d="M14.0234 27.1117C12.8684 27.1117 11.7484 26.645 10.9318 25.8284C10.1151 25.0117 9.64844 23.8917 9.64844 22.7367H11.3984C11.3984 23.425 11.6784 24.1017 12.1684 24.5917C12.6584 25.0817 13.3351 25.3617 14.0234 25.3617C15.4701 25.3617 16.6484 24.1834 16.6484 22.7367H18.3984C18.3984 25.1517 16.4384 27.1117 14.0234 27.1117Z" fill="#292D32"/>
</svg>
