<svg width="18" height="18" viewBox="0 0 18 18" fill="none" xmlns="http://www.w3.org/2000/svg">
<path d="M5.445 14.1678C5.385 14.1678 5.325 14.1603 5.265 14.1528C4.815 14.0928 4.4325 13.8078 4.245 13.4028L3.3 11.3253C1.8 10.2153 0.9375 8.55781 0.9375 6.75781C0.9375 3.55531 3.7125 0.945312 7.125 0.945312C9.5325 0.945312 11.73 2.26531 12.7275 4.31281C13.11 5.07031 13.3125 5.89531 13.3125 6.75781C13.3125 9.87781 10.68 12.4353 7.395 12.5628L6.45 13.7028C6.195 13.9953 5.8275 14.1678 5.445 14.1678ZM7.125 2.06281C4.335 2.06281 2.0625 4.16281 2.0625 6.75031C2.0625 8.22781 2.79749 9.5928 4.07249 10.4928C4.15499 10.5528 4.22249 10.6278 4.25999 10.7178L5.265 12.9303C5.3025 13.0128 5.3775 13.0353 5.415 13.0353C5.4525 13.0428 5.5275 13.0353 5.58 12.9753L6.69 11.6403C6.795 11.5128 6.9525 11.4378 7.125 11.4378C9.915 11.4378 12.1875 9.3378 12.1875 6.75031C12.1875 6.06781 12.03 5.41529 11.7225 4.80779C10.9125 3.13528 9.105 2.06281 7.125 2.06281Z" fill="#292D32"/>
<path d="M12.5551 17.0628C12.1651 17.0628 11.8051 16.8903 11.5501 16.5903L10.6051 15.4578C8.79006 15.3828 7.08006 14.5503 5.98506 13.2003C5.81256 12.9903 5.82006 12.6903 5.99256 12.4878L6.69006 11.6478C6.79506 11.5203 6.95256 11.4453 7.12506 11.4453C9.91506 11.4453 12.1876 9.34533 12.1876 6.75783C12.1876 6.07533 12.0301 5.42281 11.7226 4.81531C11.6251 4.62031 11.6476 4.38782 11.7826 4.21532C11.9176 4.04282 12.1426 3.96781 12.3526 4.01281C15.1276 4.65031 17.0626 6.96782 17.0626 9.65282C17.0626 11.4528 16.2001 13.1103 14.7001 14.2203L13.7551 16.2978C13.5601 16.7178 13.1776 17.0028 12.7201 17.0553C12.6676 17.0628 12.6076 17.0628 12.5551 17.0628ZM7.17006 12.8253C8.10756 13.7778 9.45756 14.3328 10.8751 14.3328C11.0401 14.3328 11.1976 14.4078 11.3101 14.5353L12.4201 15.8703C12.4726 15.9378 12.5401 15.9453 12.5851 15.9378C12.6151 15.9378 12.6976 15.9153 12.7426 15.8253L13.7476 13.6128C13.7926 13.5228 13.8526 13.4403 13.9351 13.3878C15.2101 12.4878 15.9451 11.1228 15.9451 9.64531C15.9451 7.84531 14.8426 6.24785 13.1626 5.46035C13.2676 5.88035 13.3201 6.30783 13.3201 6.75033C13.3201 9.87033 10.6876 12.4278 7.40256 12.5553L7.17006 12.8253Z" fill="#292D32"/>
<path d="M9 7.3125H5.25C4.9425 7.3125 4.6875 7.0575 4.6875 6.75C4.6875 6.4425 4.9425 6.1875 5.25 6.1875H9C9.3075 6.1875 9.5625 6.4425 9.5625 6.75C9.5625 7.0575 9.3075 7.3125 9 7.3125Z" fill="#292D32"/>
</svg>
