<svg width="35" height="35" viewBox="0 0 35 35" fill="none" xmlns="http://www.w3.org/2000/svg">
<rect x="0.5" y="0.5" width="34" height="34" rx="8" fill="#E4DBC9"/>
<path d="M22.5 26.25H12.5C8.09 26.25 6.75 24.91 6.75 20.5V20C6.75 19.59 7.09 19.25 7.5 19.25C8.46 19.25 9.25 18.46 9.25 17.5C9.25 16.54 8.46 15.75 7.5 15.75C7.09 15.75 6.75 15.41 6.75 15V14.5C6.75 10.09 8.09 8.75 12.5 8.75H22.5C26.91 8.75 28.25 10.09 28.25 14.5V15.5C28.25 15.91 27.91 16.25 27.5 16.25C26.54 16.25 25.75 17.04 25.75 18C25.75 18.96 26.54 19.75 27.5 19.75C27.91 19.75 28.25 20.09 28.25 20.5C28.25 24.91 26.91 26.25 22.5 26.25ZM8.25 20.66C8.27 24.1 8.98 24.75 12.5 24.75H22.5C25.84 24.75 26.65 24.16 26.74 21.16C25.31 20.82 24.25 19.53 24.25 18C24.25 16.47 25.32 15.18 26.75 14.84V14.5C26.75 10.93 26.08 10.25 22.5 10.25H12.5C8.98 10.25 8.27 10.9 8.25 14.34C9.68 14.68 10.75 15.97 10.75 17.5C10.75 19.03 9.68 20.32 8.25 20.66Z" fill="#292D32"/>
<path d="M15.5 12.75C15.09 12.75 14.75 12.41 14.75 12V9.5C14.75 9.09 15.09 8.75 15.5 8.75C15.91 8.75 16.25 9.09 16.25 9.5V12C16.25 12.41 15.91 12.75 15.5 12.75Z" fill="#292D32"/>
<path d="M15.5 20.0802C15.09 20.0802 14.75 19.7402 14.75 19.3302V15.6602C14.75 15.2502 15.09 14.9102 15.5 14.9102C15.91 14.9102 16.25 15.2502 16.25 15.6602V19.3302C16.25 19.7502 15.91 20.0802 15.5 20.0802Z" fill="#292D32"/>
<path d="M15.5 26.25C15.09 26.25 14.75 25.91 14.75 25.5V23C14.75 22.59 15.09 22.25 15.5 22.25C15.91 22.25 16.25 22.59 16.25 23V25.5C16.25 25.91 15.91 26.25 15.5 26.25Z" fill="#292D32"/>
</svg>
