<svg width="17" height="16" viewBox="0 0 17 16" fill="none" xmlns="http://www.w3.org/2000/svg">
<path d="M16.0469 1C16.0469 0.767005 15.858 0.578125 15.625 0.578125H11.7898C10.0402 0.578125 8.34084 0.959218 7.0666 1.66005C5.80279 2.35515 4.97585 3.36351 4.97585 4.51562V6.20312H1.5625C1.3295 6.20312 1.14062 6.392 1.14062 6.625V9.4375C1.14062 9.67049 1.3295 9.85937 1.5625 9.85937H4.97585V15.0625C4.97585 15.2955 5.16473 15.4844 5.39773 15.4844H10.5114C10.7444 15.4844 10.9332 15.2955 10.9332 15.0625V9.85937H14.3466C14.512 9.85937 14.6622 9.76268 14.7307 9.61207L16.0091 6.79957C16.0684 6.66899 16.0574 6.5172 15.9797 6.3966C15.902 6.276 15.7684 6.20312 15.625 6.20312H10.9332V4.52041C10.9346 4.51711 10.938 4.51048 10.9457 4.50035C10.9655 4.47404 11.0085 4.43243 11.0891 4.38809L10.8858 4.01844L11.0891 4.38809C11.2534 4.29776 11.505 4.23438 11.7898 4.23438H15.625C15.858 4.23438 16.0469 4.0455 16.0469 3.8125V1ZM10.9324 4.52288C10.9324 4.52289 10.9324 4.5225 10.9327 4.52173L10.9324 4.52288Z" stroke="white" stroke-width="0.84375" stroke-linecap="round" stroke-linejoin="round"/>
</svg>
