<svg width="15" height="15" viewBox="0 0 15 15" fill="none" xmlns="http://www.w3.org/2000/svg">
<path fill-rule="evenodd" clip-rule="evenodd" d="M2.57393 0C2.07362 0 1.5938 0.198749 1.24002 0.552523C0.886249 0.906298 0.6875 1.38612 0.6875 1.88643C0.6875 2.38675 0.886249 2.86657 1.24002 3.22034C1.5938 3.57412 2.07362 3.77287 2.57393 3.77287C3.07425 3.77287 3.55407 3.57412 3.90784 3.22034C4.26162 2.86657 4.46037 2.38675 4.46037 1.88643C4.46037 1.38612 4.26162 0.906298 3.90784 0.552523C3.55407 0.198749 3.07425 0 2.57393 0ZM1.71646 1.88643C1.71646 1.65902 1.8068 1.44092 1.96761 1.28011C2.12842 1.1193 2.34652 1.02896 2.57393 1.02896C2.80135 1.02896 3.01945 1.1193 3.18026 1.28011C3.34106 1.44092 3.4314 1.65902 3.4314 1.88643C3.4314 2.11385 3.34106 2.33195 3.18026 2.49276C3.01945 2.65356 2.80135 2.7439 2.57393 2.7439C2.34652 2.7439 2.12842 2.65356 1.96761 2.49276C1.8068 2.33195 1.71646 2.11385 1.71646 1.88643ZM0.6875 4.63034C0.6875 4.49389 0.741704 4.36303 0.838188 4.26654C0.934672 4.17006 1.06553 4.11585 1.20198 4.11585H3.94588C4.08233 4.11585 4.21319 4.17006 4.30968 4.26654C4.40616 4.36303 4.46037 4.49389 4.46037 4.63034V13.548C4.46037 13.6845 4.40616 13.8153 4.30968 13.9118C4.21319 14.0083 4.08233 14.0625 3.94588 14.0625H1.20198C1.06553 14.0625 0.934672 14.0083 0.838188 13.9118C0.741704 13.8153 0.6875 13.6845 0.6875 13.548V4.63034ZM1.71646 5.14482V13.0335H3.4314V5.14482H1.71646ZM5.48933 4.63034C5.48933 4.49389 5.54353 4.36303 5.64002 4.26654C5.7365 4.17006 5.86736 4.11585 6.00381 4.11585H8.74771C8.88416 4.11585 9.01502 4.17006 9.11151 4.26654C9.20799 4.36303 9.2622 4.49389 9.2622 4.63034V4.92805L9.56059 4.79977C10.0751 4.5799 10.6209 4.44217 11.1781 4.39162C13.0817 4.21875 14.75 5.71418 14.75 7.63491V13.548C14.75 13.6845 14.6958 13.8153 14.5993 13.9118C14.5028 14.0083 14.372 14.0625 14.2355 14.0625H11.4916C11.3552 14.0625 11.2243 14.0083 11.1278 13.9118C11.0313 13.8153 10.9771 13.6845 10.9771 13.548V8.74619C10.9771 8.51877 10.8868 8.30067 10.726 8.13987C10.5652 7.97906 10.3471 7.88872 10.1197 7.88872C9.89225 7.88872 9.67415 7.97906 9.51334 8.13987C9.35254 8.30067 9.2622 8.51877 9.2622 8.74619V13.548C9.2622 13.6845 9.20799 13.8153 9.11151 13.9118C9.01502 14.0083 8.88416 14.0625 8.74771 14.0625H6.00381C5.86736 14.0625 5.7365 14.0083 5.64002 13.9118C5.54353 13.8153 5.48933 13.6845 5.48933 13.548V4.63034ZM6.51829 5.14482V13.0335H8.23323V8.74619C8.23323 8.24588 8.43198 7.76605 8.78576 7.41228C9.13953 7.0585 9.61935 6.85976 10.1197 6.85976C10.62 6.85976 11.0998 7.0585 11.4536 7.41228C11.8073 7.76605 12.0061 8.24588 12.0061 8.74619V13.0335H13.721V7.63491C13.721 6.32881 12.5816 5.2971 11.2721 5.41646C10.8222 5.45739 10.3815 5.56849 9.96601 5.74573L8.95076 6.18133C8.87246 6.21496 8.78702 6.22862 8.70213 6.22107C8.61724 6.21352 8.53556 6.185 8.46442 6.13807C8.39328 6.09114 8.33491 6.02727 8.29456 5.95221C8.2542 5.87714 8.23313 5.79323 8.23323 5.708V5.14482H6.51829Z" fill="white"/>
</svg>
