<svg width="34" height="34" viewBox="0 0 34 34" fill="none" xmlns="http://www.w3.org/2000/svg">
<rect width="34" height="34" rx="8" fill="#F28F77"/>
<path d="M18 19.75H7C6.59 19.75 6.25 19.41 6.25 19V11C6.25 8.38 8.38 6.25 11 6.25H20C20.41 6.25 20.75 6.59 20.75 7V17C20.75 18.52 19.52 19.75 18 19.75ZM7.75 18.25H18C18.69 18.25 19.25 17.69 19.25 17V7.75H11C9.21 7.75 7.75 9.21 7.75 11V18.25Z" fill="white"/>
<path d="M24 25.75H23C22.59 25.75 22.25 25.41 22.25 25C22.25 24.31 21.69 23.75 21 23.75C20.31 23.75 19.75 24.31 19.75 25C19.75 25.41 19.41 25.75 19 25.75H15C14.59 25.75 14.25 25.41 14.25 25C14.25 24.31 13.69 23.75 13 23.75C12.31 23.75 11.75 24.31 11.75 25C11.75 25.41 11.41 25.75 11 25.75H10C7.93 25.75 6.25 24.07 6.25 22V19C6.25 18.59 6.59 18.25 7 18.25H18C18.69 18.25 19.25 17.69 19.25 17V10C19.25 9.59 19.59 9.25 20 9.25H21.84C22.83 9.25 23.74 9.78001 24.23 10.64L25.94 13.63C26.07 13.86 26.07 14.15 25.94 14.38C25.81 14.61 25.56 14.75 25.29 14.75H24C23.86 14.75 23.75 14.86 23.75 15V18C23.75 18.14 23.86 18.25 24 18.25H27C27.41 18.25 27.75 18.59 27.75 19V22C27.75 24.07 26.07 25.75 24 25.75ZM23.65 24.25H24C25.24 24.25 26.25 23.24 26.25 22V19.75H24C23.04 19.75 22.25 18.96 22.25 18V15C22.25 14.04 23.03 13.25 24 13.25L22.93 11.38C22.71 10.99 22.29 10.75 21.84 10.75H20.75V17C20.75 18.52 19.52 19.75 18 19.75H7.75V22C7.75 23.24 8.76 24.25 10 24.25H10.35C10.68 23.1 11.74 22.25 13 22.25C14.26 22.25 15.32 23.1 15.65 24.25H18.36C18.69 23.1 19.75 22.25 21.01 22.25C22.27 22.25 23.32 23.1 23.65 24.25Z" fill="white"/>
<path d="M13 27.75C11.48 27.75 10.25 26.52 10.25 25C10.25 23.48 11.48 22.25 13 22.25C14.52 22.25 15.75 23.48 15.75 25C15.75 26.52 14.52 27.75 13 27.75ZM13 23.75C12.31 23.75 11.75 24.31 11.75 25C11.75 25.69 12.31 26.25 13 26.25C13.69 26.25 14.25 25.69 14.25 25C14.25 24.31 13.69 23.75 13 23.75Z" fill="white"/>
<path d="M21 27.75C19.48 27.75 18.25 26.52 18.25 25C18.25 23.48 19.48 22.25 21 22.25C22.52 22.25 23.75 23.48 23.75 25C23.75 26.52 22.52 27.75 21 27.75ZM21 23.75C20.31 23.75 19.75 24.31 19.75 25C19.75 25.69 20.31 26.25 21 26.25C21.69 26.25 22.25 25.69 22.25 25C22.25 24.31 21.69 23.75 21 23.75Z" fill="white"/>
<path d="M27 19.75H24C23.04 19.75 22.25 18.96 22.25 18V15C22.25 14.04 23.04 13.25 24 13.25H25.29C25.56 13.25 25.81 13.39 25.94 13.63L27.65 16.63C27.71 16.74 27.75 16.87 27.75 17V19C27.75 19.41 27.41 19.75 27 19.75ZM24 14.75C23.86 14.75 23.75 14.86 23.75 15V18C23.75 18.14 23.86 18.25 24 18.25H26.25V17.2L24.85 14.75H24Z" fill="white"/>
</svg>
