<svg width="113" height="24" viewBox="0 0 113 24" fill="none" xmlns="http://www.w3.org/2000/svg">
<path d="M9.97159 9.0625C9.91856 8.56629 9.69508 8.17992 9.30114 7.90341C8.91099 7.62689 8.40341 7.48864 7.77841 7.48864C7.33902 7.48864 6.96212 7.55492 6.64773 7.6875C6.33333 7.82008 6.0928 8 5.92614 8.22727C5.75947 8.45455 5.67424 8.71402 5.67045 9.00568C5.67045 9.24811 5.72538 9.45833 5.83523 9.63636C5.94886 9.81439 6.10227 9.96591 6.29545 10.0909C6.48864 10.2121 6.70265 10.3144 6.9375 10.3977C7.17235 10.4811 7.40909 10.5511 7.64773 10.608L8.73864 10.8807C9.17803 10.983 9.60038 11.1212 10.0057 11.2955C10.4148 11.4697 10.7803 11.6894 11.1023 11.9545C11.428 12.2197 11.6856 12.5398 11.875 12.9148C12.0644 13.2898 12.1591 13.7292 12.1591 14.233C12.1591 14.9148 11.9848 15.5152 11.6364 16.0341C11.2879 16.5492 10.7841 16.9527 10.125 17.2443C9.4697 17.5322 8.67614 17.6761 7.74432 17.6761C6.83902 17.6761 6.05303 17.536 5.38636 17.2557C4.72348 16.9754 4.20455 16.5663 3.82955 16.0284C3.45833 15.4905 3.25758 14.8352 3.22727 14.0625H5.30114C5.33144 14.4678 5.45644 14.8049 5.67614 15.0739C5.89583 15.3428 6.18182 15.5436 6.53409 15.6761C6.89015 15.8087 7.28788 15.875 7.72727 15.875C8.18561 15.875 8.58712 15.8068 8.93182 15.6705C9.2803 15.5303 9.55303 15.3371 9.75 15.0909C9.94697 14.8409 10.0473 14.5492 10.0511 14.2159C10.0473 13.9129 9.95833 13.6629 9.78409 13.4659C9.60985 13.2652 9.36553 13.0985 9.05114 12.9659C8.74053 12.8295 8.37689 12.7083 7.96023 12.6023L6.63636 12.2614C5.67803 12.0152 4.92045 11.642 4.36364 11.142C3.81061 10.6383 3.53409 9.9697 3.53409 9.13636C3.53409 8.45076 3.7197 7.85038 4.09091 7.33523C4.46591 6.82008 4.97538 6.42045 5.61932 6.13636C6.26326 5.84848 6.99242 5.70455 7.80682 5.70455C8.63258 5.70455 9.35606 5.84848 9.97727 6.13636C10.6023 6.42045 11.0928 6.81629 11.4489 7.32386C11.8049 7.82765 11.9886 8.4072 12 9.0625H9.97159ZM14.0384 17.5V5.86364H16.1463V10.7898H21.5384V5.86364H23.652V17.5H21.5384V12.5568H16.1463V17.5H14.0384ZM25.9446 17.5V5.86364H33.5128V7.63068H28.0526V10.7898H33.1207V12.5568H28.0526V15.733H33.5582V17.5H25.9446ZM39.6065 17.5H35.6634V5.86364H39.6861C40.8414 5.86364 41.8338 6.09659 42.6634 6.5625C43.4967 7.02462 44.1368 7.68939 44.5838 8.55682C45.0308 9.42424 45.2543 10.4621 45.2543 11.6705C45.2543 12.8826 45.0289 13.9242 44.5781 14.7955C44.1312 15.6667 43.4853 16.3352 42.6406 16.8011C41.7997 17.267 40.7884 17.5 39.6065 17.5ZM37.7713 15.6761H39.5043C40.3149 15.6761 40.991 15.5284 41.5327 15.233C42.0743 14.9337 42.4815 14.4886 42.7543 13.8977C43.027 13.303 43.1634 12.5606 43.1634 11.6705C43.1634 10.7803 43.027 10.0417 42.7543 9.45455C42.4815 8.86364 42.0781 8.42235 41.544 8.13068C41.0137 7.83523 40.3546 7.6875 39.5668 7.6875H37.7713V15.6761ZM48.1264 17.5H45.8764L49.973 5.86364H52.5753L56.6776 17.5H54.4276L51.3196 8.25H51.2287L48.1264 17.5ZM48.2003 12.9375H54.3366V14.6307H48.2003V12.9375Z" fill="#800020"/>
<path d="M63.6477 5.86364H66.2273L69.6818 14.2955H69.8182L73.2727 5.86364H75.8523V17.5H73.8295V9.50568H73.7216L70.5057 17.4659H68.9943L65.7784 9.48864H65.6705V17.5H63.6477V5.86364ZM79.642 17.5H77.392L81.4886 5.86364H84.0909L88.1932 17.5H85.9432L82.8352 8.25H82.7443L79.642 17.5ZM79.7159 12.9375H85.8523V14.6307H79.7159V12.9375ZM89.7259 17.5V5.86364H94.0895C94.9834 5.86364 95.7334 6.01894 96.3395 6.32955C96.9493 6.64015 97.4096 7.07576 97.7202 7.63636C98.0346 8.19318 98.1918 8.8428 98.1918 9.58523C98.1918 10.3314 98.0327 10.9792 97.7145 11.5284C97.4001 12.0739 96.9361 12.4962 96.3224 12.7955C95.7088 13.0909 94.955 13.2386 94.0611 13.2386H90.9531V11.4886H93.777C94.2997 11.4886 94.7277 11.4167 95.0611 11.2727C95.3944 11.125 95.6406 10.911 95.7997 10.6307C95.9626 10.3466 96.044 9.99811 96.044 9.58523C96.044 9.17235 95.9626 8.82008 95.7997 8.52841C95.6368 8.23295 95.3887 8.00947 95.0554 7.85795C94.7221 7.70265 94.2921 7.625 93.7656 7.625H91.8338V17.5H89.7259ZM95.7372 12.2273L98.6179 17.5H96.2656L93.4361 12.2273H95.7372ZM99.6207 7.63068V5.86364H108.905V7.63068H105.308V17.5H103.217V7.63068H99.6207Z" fill="#800020"/>
</svg>
