<svg width="18" height="18" viewBox="0 0 18 18" fill="none" xmlns="http://www.w3.org/2000/svg">
<path d="M11.7378 16.0571C11.4153 16.0571 11.0928 15.9896 10.8303 15.8621L6.89277 13.8896C6.66777 13.7771 6.22527 13.7846 6.00777 13.9121L4.23777 14.9246C3.47277 15.3596 2.68527 15.4196 2.09277 15.0671C1.49277 14.7221 1.15527 14.0171 1.15527 13.1321V5.84213C1.15527 5.15963 1.60527 4.38713 2.19777 4.04963L5.44527 2.18963C5.99277 1.87463 6.82527 1.85213 7.38777 2.13713L11.3253 4.10963C11.5503 4.22213 11.9853 4.20713 12.2103 4.08713L13.9728 3.08213C14.7378 2.64713 15.5253 2.58713 16.1178 2.93963C16.7178 3.28463 17.0553 3.98963 17.0553 4.87463V12.1721C17.0553 12.8546 16.6053 13.6271 16.0128 13.9646L12.7653 15.8246C12.4803 15.9746 12.1053 16.0571 11.7378 16.0571ZM6.48027 12.6896C6.80277 12.6896 7.12527 12.7571 7.38777 12.8846L11.3253 14.8571C11.5503 14.9696 11.9853 14.9546 12.2103 14.8346L15.4578 12.9746C15.6978 12.8396 15.9303 12.4346 15.9303 12.1646V4.86713C15.9303 4.39463 15.7953 4.04213 15.5478 3.90713C15.3078 3.77213 14.9328 3.82463 14.5278 4.05713L12.7653 5.06213C12.2178 5.37713 11.3853 5.39963 10.8228 5.11463L6.88527 3.14213C6.66027 3.02963 6.22527 3.04463 6.00027 3.16463L2.75277 5.02463C2.51277 5.15963 2.28027 5.56463 2.28027 5.84213V13.1396C2.28027 13.6121 2.41527 13.9646 2.65527 14.0996C2.89527 14.2421 3.27027 14.1821 3.68277 13.9496L5.44527 12.9446C5.73777 12.7721 6.11277 12.6896 6.48027 12.6896Z" fill="#292D32"/>
<path d="M6.41992 13.3125C6.11242 13.3125 5.85742 13.0575 5.85742 12.75V3C5.85742 2.6925 6.11242 2.4375 6.41992 2.4375C6.72742 2.4375 6.98242 2.6925 6.98242 3V12.75C6.98242 13.0575 6.72742 13.3125 6.41992 13.3125Z" fill="#292D32"/>
<path d="M11.7979 15.5623C11.4904 15.5623 11.2354 15.3073 11.2354 14.9998V4.96484C11.2354 4.65734 11.4904 4.40234 11.7979 4.40234C12.1054 4.40234 12.3604 4.65734 12.3604 4.96484V14.9998C12.3604 15.3073 12.1054 15.5623 11.7979 15.5623Z" fill="#292D32"/>
</svg>
