<svg width="28" height="29" viewBox="0 0 28 29" fill="none" xmlns="http://www.w3.org/2000/svg">
<rect y="0.362061" width="28" height="28" rx="4" fill="#E3B8C8"/>
<path d="M5 11.3621H7.25V5.36206H9.5L13.3475 11.3621H18.5V5.36206H20.75V11.3621H23V13.3621H20.75V15.3621H23V17.3621H20.75V23.3621H18.5L14.6412 17.3621H9.5V23.3621H7.25V17.3621H5V15.3621H7.25V13.3621H5V11.3621ZM9.5 11.3621H10.7713L9.5 9.39206V11.3621ZM9.5 13.3621V15.3621H13.3475L12.065 13.3621H9.5ZM18.5 19.3621V17.3621H17.2063L18.5 19.3621ZM14.63 13.3621L15.9237 15.3621H18.5V13.3621H14.63Z" fill="#CB3846"/>
</svg>
