<svg width="28" height="29" viewBox="0 0 28 29" fill="none" xmlns="http://www.w3.org/2000/svg">
<rect y="0.362061" width="28" height="28" rx="4" fill="#FAF6F6"/>
<mask id="path-2-inside-1_1135_7820" fill="white">
<path d="M19.74 14.9245H17.25C15.3825 14.9245 14.4375 13.867 14.4375 11.7745V9.62203C14.4375 8.85703 14.5275 7.76203 15.3225 7.16203C15.99 6.66703 16.95 6.62953 18.3675 7.04203C20.2275 7.58203 21.78 9.13453 22.32 10.9945C22.7325 12.4045 22.695 13.372 22.2 14.032C21.6 14.8345 20.505 14.9245 19.74 14.9245ZM16.71 7.88203C16.4025 7.88203 16.1625 7.94203 16.005 8.06203C15.7125 8.27953 15.57 8.78953 15.57 9.62203V11.782C15.57 13.462 16.215 13.807 17.2575 13.807H19.7475C20.5725 13.807 21.0825 13.6645 21.3075 13.372C21.57 13.027 21.5475 12.337 21.255 11.3245C20.82 9.84703 19.545 8.56453 18.0675 8.13703C17.5125 7.96453 17.0625 7.88203 16.71 7.88203Z"/>
</mask>
<path d="M19.74 14.9245H17.25C15.3825 14.9245 14.4375 13.867 14.4375 11.7745V9.62203C14.4375 8.85703 14.5275 7.76203 15.3225 7.16203C15.99 6.66703 16.95 6.62953 18.3675 7.04203C20.2275 7.58203 21.78 9.13453 22.32 10.9945C22.7325 12.4045 22.695 13.372 22.2 14.032C21.6 14.8345 20.505 14.9245 19.74 14.9245ZM16.71 7.88203C16.4025 7.88203 16.1625 7.94203 16.005 8.06203C15.7125 8.27953 15.57 8.78953 15.57 9.62203V11.782C15.57 13.462 16.215 13.807 17.2575 13.807H19.7475C20.5725 13.807 21.0825 13.6645 21.3075 13.372C21.57 13.027 21.5475 12.337 21.255 11.3245C20.82 9.84703 19.545 8.56453 18.0675 8.13703C17.5125 7.96453 17.0625 7.88203 16.71 7.88203Z" fill="#E7CABB"/>
<path d="M15.3225 7.16203L14.1312 5.55556L14.1244 5.56058L14.1177 5.56565L15.3225 7.16203ZM18.3675 7.04203L17.8087 8.96237L17.8099 8.96272L18.3675 7.04203ZM22.32 10.9945L20.3993 11.5522L20.4005 11.5561L22.32 10.9945ZM22.2 14.032L20.6 12.832L20.5982 12.8344L22.2 14.032ZM16.005 8.06203L17.1984 9.66696L17.2078 9.65998L17.2171 9.65289L16.005 8.06203ZM21.3075 13.372L22.8928 14.5915L22.8992 14.5831L21.3075 13.372ZM21.255 11.3245L23.1765 10.7694L23.1736 10.7597L21.255 11.3245ZM18.0675 8.13703L17.4739 10.0469L17.4927 10.0528L17.5116 10.0582L18.0675 8.13703ZM19.74 12.9245H17.25V16.9245H19.74V12.9245ZM17.25 12.9245C16.9672 12.9245 16.805 12.884 16.7256 12.8542C16.6574 12.8286 16.641 12.8085 16.6352 12.802C16.6191 12.7841 16.4375 12.5595 16.4375 11.7745H12.4375C12.4375 13.0821 12.7284 14.4325 13.6517 15.4664C14.6128 16.5426 15.9396 16.9245 17.25 16.9245V12.9245ZM16.4375 11.7745V9.62203H12.4375V11.7745H16.4375ZM16.4375 9.62203C16.4375 9.29766 16.4598 9.04439 16.5106 8.85915C16.5578 8.68735 16.5912 8.7102 16.5273 8.75841L14.1177 5.56565C13.2588 6.21386 12.8497 7.08421 12.6531 7.80117C12.4602 8.50468 12.4375 9.1814 12.4375 9.62203H16.4375ZM16.5138 8.76851C16.4694 8.80148 16.469 8.76699 16.6423 8.76017C16.8481 8.75208 17.2132 8.78908 17.8087 8.96237L18.9263 5.12169C17.357 4.66499 15.5843 4.47796 14.1312 5.55556L16.5138 8.76851ZM17.8099 8.96272C19.0121 9.31175 20.0503 10.3499 20.3993 11.5522L24.2407 10.4369C23.5097 7.91912 21.4429 5.85231 18.9251 5.12134L17.8099 8.96272ZM20.4005 11.5561C20.5729 12.1455 20.6099 12.5102 20.6019 12.7159C20.5949 12.8918 20.5596 12.8859 20.6 12.832L23.8 15.232C24.8879 13.7815 24.6956 11.9919 24.2395 10.433L20.4005 11.5561ZM20.5982 12.8344C20.6445 12.7725 20.6674 12.805 20.4991 12.8515C20.3159 12.9021 20.0645 12.9245 19.74 12.9245V16.9245C20.1805 16.9245 20.8591 16.902 21.5646 16.707C22.2851 16.5078 23.1555 16.0941 23.8018 15.2296L20.5982 12.8344ZM16.71 5.88203C16.2052 5.88203 15.451 5.96975 14.7929 6.47117L17.2171 9.65289C17.0349 9.79167 16.8725 9.84545 16.7936 9.86549C16.7144 9.88559 16.6801 9.88203 16.71 9.88203V5.88203ZM14.8116 6.45711C14.178 6.92825 13.8897 7.5783 13.7514 8.07396C13.6111 8.5767 13.57 9.11334 13.57 9.62203H17.57C17.57 9.46894 17.5767 9.35336 17.5856 9.26955C17.5947 9.18425 17.6044 9.14827 17.6042 9.14885C17.6038 9.15036 17.5996 9.16548 17.589 9.19115C17.5785 9.21684 17.5604 9.2562 17.5315 9.3046C17.4726 9.40341 17.3679 9.54093 17.1984 9.66696L14.8116 6.45711ZM13.57 9.62203V11.782H17.57V9.62203H13.57ZM13.57 11.782C13.57 12.7868 13.745 13.9614 14.5974 14.8274C15.4742 15.7183 16.5995 15.807 17.2575 15.807V11.807C17.1804 11.807 17.1305 11.8037 17.101 11.8006C17.0717 11.7974 17.074 11.7955 17.0986 11.8024C17.1246 11.8098 17.1772 11.8275 17.2438 11.8649C17.3124 11.9034 17.3834 11.9557 17.4483 12.0216C17.5846 12.1601 17.6155 12.2767 17.6101 12.2576C17.6007 12.2248 17.57 12.0867 17.57 11.782H13.57ZM17.2575 15.807H19.7475V11.807H17.2575V15.807ZM19.7475 15.807C20.2544 15.807 20.7884 15.7656 21.2899 15.6257C21.7867 15.4871 22.4224 15.2029 22.8927 14.5915L19.7223 12.1526C19.844 11.9943 19.9746 11.8963 20.0684 11.8409C20.1144 11.8138 20.1516 11.7968 20.1759 11.7869C20.2001 11.777 20.2141 11.7731 20.2151 11.7728C20.2161 11.7725 20.2071 11.775 20.1862 11.7788C20.1654 11.7826 20.1352 11.7872 20.0946 11.7916C20.012 11.8004 19.8981 11.807 19.7475 11.807V15.807ZM22.8992 14.5831C23.4297 13.8858 23.5035 13.0859 23.4886 12.5438C23.4728 11.9655 23.3466 11.3587 23.1764 10.7695L19.3336 11.8796C19.3923 12.0829 19.4318 12.2505 19.4566 12.3854C19.4818 12.5221 19.4889 12.6087 19.4901 12.6534C19.4914 12.701 19.4852 12.6724 19.5039 12.5926C19.5234 12.5097 19.5766 12.344 19.7158 12.161L22.8992 14.5831ZM23.1736 10.7597C22.5484 8.63636 20.7661 6.83582 18.6234 6.21583L17.5116 10.0582C18.3239 10.2932 19.0916 11.0577 19.3364 11.8894L23.1736 10.7597ZM18.6611 6.22715C18.011 6.0251 17.345 5.88203 16.71 5.88203V9.88203C16.78 9.88203 17.014 9.90396 17.4739 10.0469L18.6611 6.22715Z" fill="#E7CABB" mask="url(#path-2-inside-1_1135_7820)"/>
<path d="M21.4415 16.4736C21.4414 16.474 21.4414 16.4744 21.4413 16.4749L21.4415 16.4736Z" fill="#E7CABB" stroke="#E7CABB" stroke-width="2"/>
</svg>
