<svg width="35" height="35" viewBox="0 0 35 35" fill="none" xmlns="http://www.w3.org/2000/svg">
<rect x="0.5" y="0.5" width="34" height="34" rx="8" fill="#CDBB9A"/>
<path d="M21.5 28.25H13.5C10.48 28.25 8.75 26.52 8.75 23.5V13.75C8.75 10.6 10.35 9 13.5 9C13.91 9 14.25 9.34 14.25 9.75C14.25 10.15 14.41 10.53 14.69 10.81C14.97 11.09 15.35 11.25 15.75 11.25H19.25C20.08 11.25 20.75 10.58 20.75 9.75C20.75 9.34 21.09 9 21.5 9C24.65 9 26.25 10.6 26.25 13.75V23.5C26.25 26.52 24.52 28.25 21.5 28.25ZM12.85 10.52C11.27 10.65 10.25 11.36 10.25 13.75V23.5C10.25 25.72 11.28 26.75 13.5 26.75H21.5C23.72 26.75 24.75 25.72 24.75 23.5V13.75C24.75 11.36 23.73 10.66 22.15 10.52C21.81 11.8 20.64 12.75 19.25 12.75H15.75C14.95 12.75 14.2 12.44 13.63 11.87C13.25 11.49 12.99 11.03 12.85 10.52Z" fill="white"/>
<path d="M19.25 12.75H15.75C14.95 12.75 14.2 12.44 13.63 11.87C13.06 11.3 12.75 10.55 12.75 9.75C12.75 8.1 14.1 6.75 15.75 6.75H19.25C20.05 6.75 20.8 7.06 21.37 7.63C21.94 8.2 22.25 8.95 22.25 9.75C22.25 11.4 20.9 12.75 19.25 12.75ZM15.75 8.25C14.92 8.25 14.25 8.92 14.25 9.75C14.25 10.15 14.41 10.53 14.69 10.81C14.97 11.09 15.35 11.25 15.75 11.25H19.25C20.08 11.25 20.75 10.58 20.75 9.75C20.75 9.35 20.59 8.97 20.31 8.69C20.03 8.41 19.65 8.25 19.25 8.25H15.75Z" fill="white"/>
<path d="M17.5 19.25H13.5C13.09 19.25 12.75 18.91 12.75 18.5C12.75 18.09 13.09 17.75 13.5 17.75H17.5C17.91 17.75 18.25 18.09 18.25 18.5C18.25 18.91 17.91 19.25 17.5 19.25Z" fill="white"/>
<path d="M21.5 23.25H13.5C13.09 23.25 12.75 22.91 12.75 22.5C12.75 22.09 13.09 21.75 13.5 21.75H21.5C21.91 21.75 22.25 22.09 22.25 22.5C22.25 22.91 21.91 23.25 21.5 23.25Z" fill="white"/>
</svg>
