<svg width="30" height="30" viewBox="0 0 30 30" fill="none" xmlns="http://www.w3.org/2000/svg">
<rect width="30" height="30" rx="8" fill="#F28F77"/>
<path d="M5 11.6667H7.5V5H10L14.275 11.6667H20V5H22.5V11.6667H25V13.8889H22.5V16.1111H25V18.3333H22.5V25H20L15.7125 18.3333H10V25H7.5V18.3333H5V16.1111H7.5V13.8889H5V11.6667ZM10 11.6667H11.4125L10 9.47778V11.6667ZM10 13.8889V16.1111H14.275L12.85 13.8889H10ZM20 20.5556V18.3333H18.5625L20 20.5556ZM15.7 13.8889L17.1375 16.1111H20V13.8889H15.7Z" fill="white"/>
</svg>
