<svg width="35" height="34" viewBox="0 0 35 34" fill="none" xmlns="http://www.w3.org/2000/svg">
<rect x="0.5" width="34" height="34" rx="8" fill="#F5DDD1"/>
<path d="M17.5 23.75C17.09 23.75 16.75 23.41 16.75 23V20C16.75 19.59 17.09 19.25 17.5 19.25C17.91 19.25 18.25 19.59 18.25 20V23C18.25 23.41 17.91 23.75 17.5 23.75Z" fill="#292D32"/>
<path d="M23.1 27.5598H11.9C10.08 27.5598 8.41996 26.1598 8.11996 24.3698L6.78996 16.3998C6.56996 15.1598 7.17996 13.5698 8.16996 12.7798L15.1 7.22982C16.44 6.14982 18.55 6.15982 19.9 7.23982L26.83 12.7798C27.81 13.5698 28.41 15.1598 28.21 16.3998L26.88 24.3598C26.58 26.1298 24.88 27.5598 23.1 27.5598ZM17.49 7.92982C16.96 7.92982 16.43 8.08982 16.04 8.39982L9.10996 13.9598C8.54996 14.4098 8.14996 15.4498 8.26996 16.1598L9.59996 24.1198C9.77996 25.1698 10.83 26.0598 11.9 26.0598H23.1C24.17 26.0598 25.22 25.1698 25.4 24.1098L26.73 16.1498C26.84 15.4498 26.44 14.3898 25.89 13.9498L18.96 8.40982C18.56 8.08982 18.02 7.92982 17.49 7.92982Z" fill="#292D32"/>
</svg>
