<svg width="34" height="35" viewBox="0 0 34 35" fill="none" xmlns="http://www.w3.org/2000/svg">
<rect y="0.5" width="34" height="34" rx="8" fill="#F28F77"/>
<path d="M18 20.25H7C6.59 20.25 6.25 19.91 6.25 19.5V11.5C6.25 8.88 8.38 6.75 11 6.75H20C20.41 6.75 20.75 7.09 20.75 7.5V17.5C20.75 19.02 19.52 20.25 18 20.25ZM7.75 18.75H18C18.69 18.75 19.25 18.19 19.25 17.5V8.25H11C9.21 8.25 7.75 9.71 7.75 11.5V18.75Z" fill="white"/>
<path d="M24 26.25H23C22.59 26.25 22.25 25.91 22.25 25.5C22.25 24.81 21.69 24.25 21 24.25C20.31 24.25 19.75 24.81 19.75 25.5C19.75 25.91 19.41 26.25 19 26.25H15C14.59 26.25 14.25 25.91 14.25 25.5C14.25 24.81 13.69 24.25 13 24.25C12.31 24.25 11.75 24.81 11.75 25.5C11.75 25.91 11.41 26.25 11 26.25H10C7.93 26.25 6.25 24.57 6.25 22.5V19.5C6.25 19.09 6.59 18.75 7 18.75H18C18.69 18.75 19.25 18.19 19.25 17.5V10.5C19.25 10.09 19.59 9.75 20 9.75H21.84C22.83 9.75 23.74 10.28 24.23 11.14L25.94 14.13C26.07 14.36 26.07 14.65 25.94 14.88C25.81 15.11 25.56 15.25 25.29 15.25H24C23.86 15.25 23.75 15.36 23.75 15.5V18.5C23.75 18.64 23.86 18.75 24 18.75H27C27.41 18.75 27.75 19.09 27.75 19.5V22.5C27.75 24.57 26.07 26.25 24 26.25ZM23.65 24.75H24C25.24 24.75 26.25 23.74 26.25 22.5V20.25H24C23.04 20.25 22.25 19.46 22.25 18.5V15.5C22.25 14.54 23.03 13.75 24 13.75L22.93 11.88C22.71 11.49 22.29 11.25 21.84 11.25H20.75V17.5C20.75 19.02 19.52 20.25 18 20.25H7.75V22.5C7.75 23.74 8.76 24.75 10 24.75H10.35C10.68 23.6 11.74 22.75 13 22.75C14.26 22.75 15.32 23.6 15.65 24.75H18.36C18.69 23.6 19.75 22.75 21.01 22.75C22.27 22.75 23.32 23.6 23.65 24.75Z" fill="white"/>
<path d="M13 28.25C11.48 28.25 10.25 27.02 10.25 25.5C10.25 23.98 11.48 22.75 13 22.75C14.52 22.75 15.75 23.98 15.75 25.5C15.75 27.02 14.52 28.25 13 28.25ZM13 24.25C12.31 24.25 11.75 24.81 11.75 25.5C11.75 26.19 12.31 26.75 13 26.75C13.69 26.75 14.25 26.19 14.25 25.5C14.25 24.81 13.69 24.25 13 24.25Z" fill="white"/>
<path d="M21 28.25C19.48 28.25 18.25 27.02 18.25 25.5C18.25 23.98 19.48 22.75 21 22.75C22.52 22.75 23.75 23.98 23.75 25.5C23.75 27.02 22.52 28.25 21 28.25ZM21 24.25C20.31 24.25 19.75 24.81 19.75 25.5C19.75 26.19 20.31 26.75 21 26.75C21.69 26.75 22.25 26.19 22.25 25.5C22.25 24.81 21.69 24.25 21 24.25Z" fill="white"/>
<path d="M27 20.25H24C23.04 20.25 22.25 19.46 22.25 18.5V15.5C22.25 14.54 23.04 13.75 24 13.75H25.29C25.56 13.75 25.81 13.89 25.94 14.13L27.65 17.13C27.71 17.24 27.75 17.37 27.75 17.5V19.5C27.75 19.91 27.41 20.25 27 20.25ZM24 15.25C23.86 15.25 23.75 15.36 23.75 15.5V18.5C23.75 18.64 23.86 18.75 24 18.75H26.25V17.7L24.85 15.25H24Z" fill="white"/>
</svg>
