<svg width="28" height="29" viewBox="0 0 28 29" fill="none" xmlns="http://www.w3.org/2000/svg">
<rect y="0.362061" width="28" height="28" rx="4" fill="#FFE7CC"/>
<path d="M21.5 12.2996H6.5C6.1925 12.2996 5.9375 12.0446 5.9375 11.7371C5.9375 11.4296 6.1925 11.1746 6.5 11.1746H21.5C21.8075 11.1746 22.0625 11.4296 22.0625 11.7371C22.0625 12.0446 21.8075 12.2996 21.5 12.2996Z" fill="#F28F77"/>
<path d="M11 18.2996H9.5C9.1925 18.2996 8.9375 18.0446 8.9375 17.7371C8.9375 17.4296 9.1925 17.1746 9.5 17.1746H11C11.3075 17.1746 11.5625 17.4296 11.5625 17.7371C11.5625 18.0446 11.3075 18.2996 11 18.2996Z" fill="#F28F77"/>
<path d="M15.875 18.2996H12.875C12.5675 18.2996 12.3125 18.0446 12.3125 17.7371C12.3125 17.4296 12.5675 17.1746 12.875 17.1746H15.875C16.1825 17.1746 16.4375 17.4296 16.4375 17.7371C16.4375 18.0446 16.1825 18.2996 15.875 18.2996Z" fill="#F28F77"/>
<path d="M18.17 21.2996H9.83C6.845 21.2996 5.9375 20.3996 5.9375 17.4446V11.2796C5.9375 8.32456 6.845 7.42456 9.83 7.42456H18.1625C21.1475 7.42456 22.055 8.32456 22.055 11.2796V17.4371C22.0625 20.3996 21.155 21.2996 18.17 21.2996ZM9.83 8.54956C7.475 8.54956 7.0625 8.95456 7.0625 11.2796V17.4371C7.0625 19.7621 7.475 20.1671 9.83 20.1671H18.1625C20.5175 20.1671 20.93 19.7621 20.93 17.4371V11.2796C20.93 8.95456 20.5175 8.54956 18.1625 8.54956H9.83Z" fill="#F28F77"/>
</svg>
