<svg width="35" height="34" viewBox="0 0 35 34" fill="none" xmlns="http://www.w3.org/2000/svg">
<rect x="0.5" width="34" height="34" rx="8" fill="#52AC52"/>
<path d="M27.5 14.25H7.5C7.09 14.25 6.75 13.91 6.75 13.5C6.75 13.09 7.09 12.75 7.5 12.75H27.5C27.91 12.75 28.25 13.09 28.25 13.5C28.25 13.91 27.91 14.25 27.5 14.25Z" fill="white"/>
<path d="M13.5 22.25H11.5C11.09 22.25 10.75 21.91 10.75 21.5C10.75 21.09 11.09 20.75 11.5 20.75H13.5C13.91 20.75 14.25 21.09 14.25 21.5C14.25 21.91 13.91 22.25 13.5 22.25Z" fill="white"/>
<path d="M20 22.25H16C15.59 22.25 15.25 21.91 15.25 21.5C15.25 21.09 15.59 20.75 16 20.75H20C20.41 20.75 20.75 21.09 20.75 21.5C20.75 21.91 20.41 22.25 20 22.25Z" fill="white"/>
<path d="M23.06 26.25H11.94C7.96 26.25 6.75 25.05 6.75 21.11V12.89C6.75 8.95 7.96 7.75 11.94 7.75H23.05C27.03 7.75 28.24 8.95 28.24 12.89V21.1C28.25 25.05 27.04 26.25 23.06 26.25ZM11.94 9.25C8.8 9.25 8.25 9.79 8.25 12.89V21.1C8.25 24.2 8.8 24.74 11.94 24.74H23.05C26.19 24.74 26.74 24.2 26.74 21.1V12.89C26.74 9.79 26.19 9.25 23.05 9.25H11.94Z" fill="white"/>
</svg>
